<?xml version="1.0" standalone="no"?>
<!DOCTYPE svg PUBLIC "-//W3C//DTD SVG 20010904//EN"
 "http://www.w3.org/TR/2001/REC-SVG-20010904/DTD/svg10.dtd">
<svg version="1.0" xmlns="http://www.w3.org/2000/svg"
 width="500.000000pt" height="500.000000pt" viewBox="0 0 500.000000 500.000000"
 preserveAspectRatio="xMidYMid meet">
<metadata>
Created by potrace 1.14, written by Peter Selinger 2001-2017
</metadata>
<g transform="translate(0.000000,500.000000) scale(0.100000,-0.100000)"
fill="#000000" stroke="none">
<path d="M2300 4984 c-488 -46 -932 -216 -1305 -500 -227 -174 -411 -370 -573
-612 -34 -51 -62 -96 -62 -99 0 -3 -15 -31 -34 -62 -79 -130 -190 -410 -240
-606 -47 -187 -61 -322 -61 -600 0 -278 14 -413 61 -600 86 -337 241 -653 464
-941 95 -125 345 -365 470 -453 316 -224 557 -336 905 -421 342 -85 808 -87
1140 -6 312 77 564 185 814 350 199 132 337 252 500 437 311 352 505 763 583
1234 18 110 21 171 21 405 1 237 -2 292 -21 400 -76 438 -244 813 -521 1160
-375 470 -943 797 -1551 892 -121 18 -480 32 -590 22z m1370 -2480 c0 -875 -4
-1484 -9 -1482 -5 2 -165 82 -355 178 l-346 175 0 1140 0 1140 273 130 c149
71 306 146 347 167 41 21 78 38 83 38 4 0 7 -669 7 -1486z m-1110 1 l0 -1295
-310 156 -310 156 0 990 0 989 208 100 c114 55 252 122 306 150 55 27 101 49
103 49 2 0 3 -583 3 -1295z m-1010 0 c0 -677 -4 -1095 -9 -1095 -6 0 -124 58
-263 129 l-253 129 -3 844 -2 844 177 84 c98 46 212 100 253 121 41 21 81 39
88 39 9 0 12 -226 12 -1095z"/>
</g>
</svg>
